<svg width="681" height="488" viewBox="0 0 681 488" fill="none" xmlns="http://www.w3.org/2000/svg">
<g clip-path="url(#clip0_7_193)">
<path d="M18.0315 486.923C18.0315 487.521 18.5117 488 19.1098 488H679.922C680.52 488 681 487.521 681 486.923C681 486.326 680.52 485.847 679.922 485.847H19.1098C18.5117 485.847 18.0315 486.326 18.0315 486.923Z" fill="#536DFE"/>
<path d="M229.634 86.0799H17.6962C9.61371 86.0799 3.0354 79.5119 3.0354 71.4422C3.0354 63.3725 9.61371 56.8046 17.6962 56.8046H229.634C237.716 56.8046 244.294 63.3725 244.294 71.4422C244.294 79.5119 237.716 86.0799 229.634 86.0799ZM17.6962 58.6139C10.6104 58.6139 4.84761 64.3677 4.84761 71.4422C4.84761 78.5168 10.6104 84.2705 17.6962 84.2705H229.634C236.719 84.2705 242.482 78.5168 242.482 71.4422C242.482 64.3677 236.719 58.6139 229.634 58.6139H17.6962Z" fill="#536DFE"/>
<path d="M229.634 257.38H17.6962C9.85843 257.38 3.48853 251.02 3.48853 243.195C3.48853 235.369 9.85843 229.01 17.6962 229.01H229.634C237.472 229.01 243.841 235.369 243.841 243.195C243.841 251.02 237.472 257.38 229.634 257.38Z" fill="#536DFE"/>
<path d="M160.181 28.3706H14.2077C6.36991 28.3706 0 22.0108 0 14.1853C0 6.35987 6.36991 0 14.2077 0H160.181C168.019 0 174.389 6.35987 174.389 14.1853C174.389 22.0108 168.019 28.3706 160.181 28.3706Z" fill="#536DFE"/>
<path d="M229.634 143.328H17.6962C9.61371 143.328 3.0354 136.76 3.0354 128.69C3.0354 120.62 9.61371 114.052 17.6962 114.052H229.634C237.716 114.052 244.294 120.62 244.294 128.69C244.294 136.76 237.716 143.328 229.634 143.328ZM17.6962 115.862C10.6104 115.862 4.84761 121.616 4.84761 128.69C4.84761 135.765 10.6104 141.518 17.6962 141.518H229.634C236.719 141.518 242.482 135.765 242.482 128.69C242.482 121.616 236.719 115.862 229.634 115.862H17.6962Z" fill="#536DFE"/>
<path d="M229.634 200.585H17.6962C9.61371 200.585 3.0354 194.017 3.0354 185.947C3.0354 177.877 9.61371 171.309 17.6962 171.309H229.634C237.716 171.309 244.294 177.877 244.294 185.947C244.294 194.017 237.716 200.585 229.634 200.585ZM17.6962 173.119C10.6104 173.119 4.84761 178.872 4.84761 185.947C4.84761 193.022 10.6104 198.775 17.6962 198.775H229.634C236.719 198.775 242.482 193.022 242.482 185.947C242.482 178.872 236.719 173.119 229.634 173.119H17.6962Z" fill="#536DFE"/>
<path d="M65.9553 46.2922H10.4112C9.08505 46.2922 8.01001 47.3636 8.01001 48.6851C8.01001 50.0066 9.08505 51.078 10.4112 51.078H65.9553C67.2814 51.078 68.3565 50.0066 68.3565 48.6851C68.3565 47.3636 67.2814 46.2922 65.9553 46.2922Z" fill="#536DFE"/>
<path d="M65.9553 104.897H10.4112C9.08505 104.897 8.01001 105.968 8.01001 107.29C8.01001 108.612 9.08505 109.683 10.4112 109.683H65.9553C67.2814 109.683 68.3565 108.612 68.3565 107.29C68.3565 105.968 67.2814 104.897 65.9553 104.897Z" fill="#536DFE"/>
<path d="M65.9553 163.511H10.4112C9.08505 163.511 8.01001 164.582 8.01001 165.904C8.01001 167.225 9.08505 168.297 10.4112 168.297H65.9553C67.2814 168.297 68.3565 167.225 68.3565 165.904C68.3565 164.582 67.2814 163.511 65.9553 163.511Z" fill="#536DFE"/>
<path d="M405.101 119.652L384.84 126.311V97.1893H403.225L405.101 119.652Z" fill="#9F616A"/>
<path d="M387.35 105.25C398.5 105.25 407.538 96.2257 407.538 85.0938C407.538 73.9618 398.5 64.9376 387.35 64.9376C376.201 64.9376 367.162 73.9618 367.162 85.0938C367.162 96.2257 376.201 105.25 387.35 105.25Z" fill="#9F616A"/>
<path d="M392.895 83.0944C389.516 82.9949 387.296 79.5843 385.982 76.4722C384.668 73.3601 383.318 69.7866 380.183 68.502C377.619 67.4526 373.097 74.5543 371.076 72.6635C368.965 70.6913 371.022 60.568 373.26 58.7496C375.498 56.9312 378.561 56.5784 381.442 56.4427C388.474 56.117 395.55 56.6869 402.446 58.1254C406.713 59.012 411.099 60.3509 414.18 63.4268C418.076 67.335 419.073 73.2244 419.354 78.7339C419.644 84.37 419.317 90.2685 416.572 95.199C413.826 100.129 408.082 103.766 402.573 102.509C402.02 99.5233 402.582 96.4565 402.799 93.4168C403.008 90.3861 402.79 87.1112 400.933 84.6957C399.084 82.2802 395.115 81.3213 392.959 83.4653" fill="#2F2E43"/>
<path d="M417.732 90.0785C419.752 88.6039 422.172 87.3645 424.654 87.6721C427.336 87.9978 429.611 90.2052 430.299 92.8197C430.988 95.4342 430.218 98.3111 428.551 100.446C426.892 102.581 424.419 103.992 421.809 104.698C420.296 105.105 418.638 105.277 417.197 104.662C415.077 103.748 413.926 101.043 414.76 98.8901" fill="#2F2E43"/>
<path d="M340.477 279.726C339.127 286.348 341.601 292.4 345.987 293.241C350.372 294.083 355.02 289.388 356.361 282.765C356.932 280.124 356.842 277.392 356.099 274.786L372.798 170.975L351.912 167.048L343.848 272.443C342.136 274.578 340.985 277.075 340.477 279.735V279.726Z" fill="#9F616A"/>
<path d="M384.623 112.949H370.37C360.294 114.478 357.557 119.842 355.265 129.758C351.767 144.884 347.3 165.022 348.188 165.32C349.611 165.791 373.876 177.19 386.245 174.584L384.623 112.949Z" fill="#536DFE"/>
<path d="M398.405 443.617H379.431V470.495H398.405V443.617Z" fill="#9F616A"/>
<path d="M360.955 486.761C358.962 486.761 357.186 486.715 355.845 486.589C350.807 486.127 345.996 482.409 343.576 480.238C342.489 479.261 342.145 477.705 342.706 476.366C343.114 475.407 343.921 474.683 344.926 474.403L358.246 470.603L379.811 456.074L380.056 456.508C380.147 456.671 382.267 460.48 382.974 463.049C383.246 464.026 383.173 464.84 382.765 465.474C382.484 465.908 382.086 466.161 381.769 466.306C382.158 466.713 383.381 467.545 387.151 468.142C392.651 469.011 393.811 463.32 393.856 463.085L393.892 462.895L394.055 462.787C396.674 461.104 398.287 460.335 398.84 460.498C399.184 460.597 399.764 460.778 401.331 476.275C401.485 476.764 402.582 480.328 401.839 483.739C401.032 487.448 384.795 486.173 381.542 485.883C381.451 485.892 369.292 486.761 360.964 486.761H360.955Z" fill="#2F2E43"/>
<path d="M452.432 422.499L436.333 432.524L450.578 455.33L466.678 445.306L452.432 422.499Z" fill="#9F616A"/>
<path d="M431.052 483.079C428.823 483.079 426.775 482.807 425.316 482.554C423.884 482.301 422.761 481.161 422.525 479.731C422.362 478.7 422.661 477.66 423.368 476.891L432.655 466.632L443.257 442.911L443.692 443.146C443.855 443.237 447.67 445.345 449.636 447.154C450.388 447.841 450.759 448.574 450.741 449.325C450.732 449.85 450.533 450.266 450.333 450.565C450.877 450.709 452.354 450.764 455.87 449.28C460.998 447.118 458.969 441.672 458.878 441.445L458.806 441.265L458.887 441.093C460.219 438.279 461.17 436.777 461.732 436.624C462.086 436.524 462.666 436.37 472.207 448.701C472.596 449.027 475.414 451.478 476.592 454.762C477.87 458.336 463.418 465.835 460.509 467.301C460.418 467.373 445.296 478.347 439.08 481.468C436.615 482.708 433.697 483.088 431.043 483.088L431.052 483.079Z" fill="#2F2E43"/>
<path d="M412.377 218.85H359.252L354.431 268.191L375.525 450.501H402.645L391.799 345.206L435.79 440.269L459.893 423.424L425.542 334.676C425.542 334.676 437.811 257.362 428.17 238.102C418.529 218.85 412.377 218.85 412.377 218.85Z" fill="#2F2E43"/>
<path d="M438.808 221.854H354.431L379.748 112.949H416.509L438.808 221.854Z" fill="#536DFE"/>
<path d="M446.401 279.726C447.751 286.348 445.277 292.4 440.892 293.241C436.506 294.083 431.858 289.388 430.517 282.765C429.946 280.124 430.037 277.392 430.78 274.786L414.08 170.975L434.966 167.048L443.03 272.443C444.743 274.578 445.893 277.075 446.401 279.735V279.726Z" fill="#9F616A"/>
<path d="M402.255 112.949H416.508C426.584 114.478 429.321 119.842 431.613 129.758C435.111 144.884 439.578 165.022 438.69 165.32C437.267 165.791 413.002 177.19 400.634 174.584L402.255 112.949Z" fill="#536DFE"/>
</g>
<defs>
<clipPath id="clip0_7_193">
<rect width="681" height="488" fill="white"/>
</clipPath>
</defs>
</svg>
