<svg width="643" height="461" viewBox="0 0 643 461" fill="none" xmlns="http://www.w3.org/2000/svg">
<g clip-path="url(#clip0_7_99)">
<path d="M642.112 461H374.916C374.68 461 374.454 460.906 374.288 460.74C374.121 460.573 374.028 460.347 374.028 460.112C374.028 459.876 374.121 459.65 374.288 459.484C374.454 459.317 374.68 459.224 374.916 459.224H642.112C642.348 459.224 642.574 459.317 642.74 459.484C642.907 459.65 643 459.876 643 460.112C643 460.347 642.907 460.573 642.74 460.74C642.574 460.906 642.348 461 642.112 461Z" fill="#3F3D56"/>
<path d="M475.289 450.828H464.407L459.229 408.824L475.292 408.825L475.289 450.828Z" fill="#FFB8B8"/>
<path d="M456.633 447.716H477.621V460.939H443.418C443.418 459.203 443.76 457.483 444.424 455.879C445.088 454.275 446.061 452.817 447.288 451.589C448.515 450.361 449.972 449.387 451.576 448.723C453.179 448.058 454.897 447.716 456.633 447.716Z" fill="#2F2E41"/>
<path d="M554.255 438.493L544.355 443.017L522.205 406.964L536.814 400.287L554.255 438.493Z" fill="#FFB8B8"/>
<path d="M535.993 443.418L555.084 434.693L560.575 446.721L529.463 460.94C528.742 459.361 528.339 457.654 528.276 455.919C528.214 454.184 528.495 452.453 529.101 450.826C529.707 449.199 530.628 447.707 531.811 446.436C532.993 445.165 534.414 444.14 535.993 443.418Z" fill="#2F2E41"/>
<path d="M522.562 309.203C523.604 308.418 524.462 307.413 525.075 306.261C525.688 305.108 526.041 303.834 526.109 302.53C526.176 301.226 525.958 299.923 525.468 298.713C524.978 297.503 524.229 296.415 523.273 295.525L536.066 266.48L519.813 269.236L510.157 296.396C508.77 298.101 508.057 300.256 508.152 302.452C508.248 304.649 509.145 306.734 510.674 308.313C512.203 309.891 514.258 310.854 516.449 311.018C518.64 311.182 520.815 310.536 522.562 309.203Z" fill="#FFB8B8"/>
<path d="M474.596 439.753H464.199C463.191 439.749 462.221 439.366 461.482 438.679C460.744 437.991 460.291 437.051 460.215 436.045L449.219 284.547C449.177 283.967 449.262 283.384 449.468 282.84C449.675 282.295 449.997 281.803 450.414 281.396C450.83 280.99 451.33 280.679 451.879 280.486C452.428 280.293 453.012 280.223 453.591 280.279L519.045 286.669C520.02 286.764 520.926 287.214 521.59 287.934C522.255 288.653 522.633 289.592 522.651 290.571L523.911 357.399C523.918 357.762 523.988 358.12 524.119 358.459L548.784 422.46C548.974 422.954 549.065 423.481 549.05 424.011C549.035 424.541 548.915 425.062 548.696 425.545C548.478 426.028 548.166 426.462 547.778 426.823C547.39 427.184 546.935 427.465 546.438 427.648L535.902 431.532C534.987 431.869 533.98 431.86 533.072 431.506C532.163 431.152 531.415 430.477 530.969 429.61L500.669 370.658C500.504 370.337 500.384 369.996 500.311 369.643L495.135 344.689C494.985 343.965 494.582 343.319 493.999 342.865C493.415 342.412 492.69 342.181 491.952 342.215C491.214 342.248 490.513 342.543 489.973 343.048C489.433 343.552 489.09 344.232 489.006 344.966L478.565 436.21C478.453 437.185 477.987 438.085 477.255 438.739C476.523 439.392 475.577 439.753 474.596 439.753Z" fill="#2F2E41"/>
<path d="M479.773 166.09C491.814 166.09 501.575 156.323 501.575 144.274C501.575 132.225 491.814 122.458 479.773 122.458C467.731 122.458 457.97 132.225 457.97 144.274C457.97 156.323 467.731 166.09 479.773 166.09Z" fill="#FFB8B8"/>
<path d="M453.368 285.422C456.159 287.349 487.604 308.083 523.445 291.591C522.981 287.587 518.508 247.375 522.414 217.732C524.268 203.667 518.671 190.638 507.059 181.983C500.752 177.306 493.313 174.395 485.508 173.552C477.703 172.708 469.815 173.963 462.656 177.186C462.067 177.449 461.475 177.724 460.878 178.009L453.368 285.422Z" fill="#536DFE"/>
<path d="M523.785 291.261C523.232 291.261 522.685 291.146 522.179 290.922C521.672 290.699 521.218 290.373 520.845 289.964L516.076 284.758C515.612 284.249 515.287 283.629 515.132 282.957C514.977 282.286 514.997 281.586 515.19 280.925L526.113 243.932L509.493 209.009C508.764 207.474 508.586 205.734 508.988 204.083C509.342 202.633 510.127 201.325 511.239 200.331C512.351 199.337 513.739 198.704 515.218 198.515C516.697 198.326 518.199 198.59 519.525 199.272C520.851 199.954 521.94 201.023 522.647 202.337L545.114 238.815C545.988 240.232 546.501 241.842 546.608 243.504C546.714 245.166 546.412 246.828 545.726 248.346L527.431 288.908C527.16 289.511 526.743 290.038 526.217 290.439C525.692 290.841 525.075 291.106 524.422 291.21C524.211 291.244 523.998 291.261 523.785 291.261Z" fill="#536DFE"/>
<path opacity="0.2" d="M469.503 286.53H460.793L475.998 214.934L476.875 215.049L473.493 282.733C473.442 283.758 473 284.723 472.257 285.43C471.514 286.137 470.528 286.531 469.503 286.53Z" fill="black"/>
<path d="M461.444 304.33C462.301 303.345 462.932 302.185 463.292 300.93C463.652 299.675 463.733 298.356 463.529 297.066C463.324 295.776 462.84 294.547 462.11 293.465C461.379 292.383 460.421 291.474 459.301 290.803L465.789 259.732L450.462 265.805L446.651 294.379C445.649 296.335 445.398 298.592 445.947 300.72C446.496 302.849 447.807 304.702 449.63 305.929C451.454 307.155 453.663 307.67 455.84 307.376C458.018 307.081 460.011 305.997 461.444 304.33Z" fill="#FFB8B8"/>
<path d="M460.565 286.619C460.414 286.619 460.264 286.611 460.114 286.594L450.825 285.561C449.821 285.446 448.897 284.956 448.239 284.189C447.581 283.422 447.236 282.434 447.275 281.424L451.118 188.351C451.239 185.432 452.418 182.657 454.436 180.545C456.454 178.433 459.171 177.129 462.08 176.876C464.989 176.624 467.89 177.442 470.241 179.175C472.591 180.908 474.23 183.439 474.851 186.294L477.326 197.691L477.314 197.771L464.506 283.214C464.367 284.16 463.892 285.025 463.169 285.651C462.445 286.276 461.521 286.62 460.565 286.619Z" fill="#536DFE"/>
<path d="M497.736 163.508C495.475 163.896 493.615 160.747 493.334 158.532C493.052 156.317 493.859 154.197 493.947 151.996C494.035 149.795 492.998 147.121 490.714 146.469C488.32 145.785 486.1 147.707 483.649 147.476C480.233 147.153 478.518 143.154 478.104 139.918C477.69 136.682 477.365 132.85 474.407 131.005C471.458 129.166 467.81 130.504 464.421 130.561C458.694 130.658 452.864 126.288 451.526 120.895C452.22 121.095 452.962 121.058 453.633 120.789C454.304 120.52 454.867 120.035 455.231 119.41C455.518 118.743 455.577 118.001 455.398 117.297C455.219 116.594 454.813 115.969 454.242 115.521L460.734 118.702C459.847 116.895 461.187 114.837 463.031 114.153C464.875 113.469 467.021 113.776 469.056 114.092C479.221 115.672 490.994 114.894 497.736 122.649C502.406 128.02 506.251 138.241 505.726 144.855C505.201 151.468 497.736 163.508 497.736 163.508Z" fill="#2F2E41"/>
<path d="M250.33 409.482H16.8659C15.2185 409.48 13.639 408.824 12.4741 407.659C11.3092 406.493 10.6539 404.912 10.652 403.264L1.20412e-05 6.24158C-0.0015959 5.42351 0.15785 4.61314 0.469244 3.85672C0.780638 3.10031 1.23788 2.41267 1.81486 1.83308C2.39185 1.25349 3.07728 0.793301 3.83201 0.47878C4.58674 0.164259 5.39599 0.00156736 6.21355 0H239.678C241.325 0.00184789 242.905 0.657522 244.07 1.82317C245.235 2.98882 245.89 4.56925 245.892 6.21773L247.822 78.1418L246.047 78.1896L244.117 6.24158C244.118 5.65671 244.005 5.07724 243.783 4.53626C243.561 3.99528 243.234 3.5034 242.822 3.08874C242.41 2.67407 241.92 2.34475 241.38 2.11959C240.841 1.89443 240.262 1.77784 239.678 1.77649H6.21355C5.03681 1.77786 3.90867 2.24622 3.07658 3.07881C2.2445 3.91141 1.77643 5.04026 1.77507 6.21773L12.4271 403.24C12.4254 403.825 12.5389 404.404 12.761 404.945C12.9832 405.486 13.3097 405.978 13.7219 406.393C14.1342 406.808 14.624 407.137 15.1635 407.362C15.7029 407.587 16.2814 407.704 16.8659 407.705H250.33C251.507 407.704 252.635 407.236 253.467 406.403C254.299 405.57 254.767 404.441 254.769 403.264L252.696 326.01L254.471 325.963L256.544 403.24C256.546 404.058 256.386 404.869 256.075 405.625C255.763 406.381 255.306 407.069 254.729 407.649C254.152 408.228 253.467 408.688 252.712 409.003C251.957 409.317 251.148 409.48 250.33 409.482Z" fill="#536DFE"/>
<path d="M250.682 184.731L248.907 184.779L249.821 218.875L251.596 218.827L250.682 184.731Z" fill="#536DFE"/>
<path d="M229.381 374.493H35.9874C34.5823 374.492 33.2352 373.932 32.2416 372.938C31.2481 371.944 30.6892 370.596 30.6876 369.19L21.864 40.3155C21.8622 39.6175 21.9979 38.926 22.2633 38.2805C22.5287 37.635 22.9186 37.0482 23.4107 36.5535C23.9029 36.0588 24.4875 35.666 25.1314 35.3975C25.7753 35.129 26.4657 34.99 27.1633 34.9886H220.556C221.961 34.9902 223.309 35.5494 224.302 36.5436C225.296 37.5377 225.855 38.8857 225.856 40.2916L227.454 78.1284L225.681 78.203L224.082 40.3289C224.085 39.8631 223.996 39.4012 223.82 38.9698C223.645 38.5384 223.386 38.1459 223.058 37.8148C222.731 37.4838 222.341 37.2206 221.912 37.0405C221.483 36.8603 221.022 36.7668 220.556 36.7651H27.1633C26.2289 36.7662 25.3331 37.1381 24.6725 37.7992C24.0118 38.4603 23.6401 39.3567 23.639 40.2916L32.4627 369.166C32.4608 369.631 32.5506 370.092 32.7267 370.522C32.9029 370.952 33.1621 371.343 33.4895 371.673C33.8168 372.002 34.2059 372.264 34.6346 372.443C35.0632 372.623 35.5229 372.715 35.9874 372.717H229.381C230.315 372.716 231.211 372.344 231.871 371.683C232.532 371.021 232.904 370.125 232.905 369.19L231.762 326.01L233.537 325.963L234.68 369.167C234.682 369.865 234.546 370.556 234.28 371.202C234.015 371.847 233.625 372.434 233.133 372.928C232.641 373.423 232.056 373.816 231.412 374.084C230.768 374.353 230.078 374.492 229.381 374.493Z" fill="#536DFE"/>
<path d="M229.824 185.62L228.049 185.667L228.942 219.42L230.717 219.373L229.824 185.62Z" fill="#536DFE"/>
<path d="M280.84 185.644H54.4777C52.8391 185.642 51.2674 184.993 50.104 183.838C48.9405 182.684 48.2794 181.117 48.2641 179.477L44.7131 83.4952C44.7149 81.8467 45.3702 80.2663 46.5351 79.1006C47.7 77.935 49.2795 77.2793 50.927 77.2775H277.29C278.928 77.2792 280.5 77.9279 281.664 79.0825C282.827 80.2371 283.488 81.8044 283.503 83.444L287.054 179.426C287.053 181.074 286.397 182.655 285.232 183.82C284.067 184.986 282.488 185.642 280.84 185.644ZM46.4887 83.4484L50.0393 179.426C50.0406 180.603 50.5087 181.732 51.3408 182.565C52.1728 183.397 53.301 183.866 54.4777 183.867H280.84C282.009 183.866 283.13 183.404 283.961 182.581C284.792 181.759 285.265 180.642 285.279 179.473L281.728 83.4952C281.727 82.3177 281.259 81.1889 280.427 80.3563C279.595 79.5237 278.466 79.0553 277.29 79.054H50.927C49.7583 79.0553 48.6372 79.5173 47.8065 80.3398C46.9758 81.1623 46.5024 82.2791 46.4887 83.4484Z" fill="#3F3D56"/>
<path d="M323.45 326.875H97.0872C95.4486 326.873 93.8769 326.224 92.7135 325.07C91.55 323.915 90.8889 322.348 90.8736 320.708L87.3226 224.726C87.3244 223.078 87.9797 221.497 89.1446 220.332C90.3095 219.166 91.889 218.511 93.5365 218.509H319.899C321.538 218.51 323.11 219.159 324.273 220.314C325.436 221.468 326.098 223.036 326.113 224.675L329.664 320.657C329.662 322.306 329.007 323.886 327.842 325.052C326.677 326.217 325.097 326.873 323.45 326.875ZM89.0982 224.68L92.6488 320.657C92.6501 321.835 93.1182 322.963 93.9503 323.796C94.7823 324.629 95.9105 325.097 97.0872 325.098H323.45C324.619 325.097 325.74 324.635 326.57 323.812C327.401 322.99 327.875 321.873 327.888 320.704L324.338 224.726C324.336 223.549 323.868 222.42 323.036 221.587C322.204 220.755 321.076 220.287 319.899 220.285H93.5365C92.3678 220.287 91.2467 220.748 90.416 221.571C89.5853 222.393 89.1119 223.51 89.0982 224.68Z" fill="#3F3D56"/>
<path d="M150.793 239.382C149.263 239.382 147.795 239.991 146.713 241.073C145.631 242.156 145.023 243.625 145.023 245.156C145.023 246.687 145.631 248.156 146.713 249.239C147.795 250.321 149.263 250.93 150.793 250.93H266.194C267.724 250.93 269.191 250.321 270.274 249.239C271.356 248.156 271.964 246.687 271.964 245.156C271.964 243.625 271.356 242.156 270.274 241.073C269.191 239.991 267.724 239.382 266.194 239.382H150.793Z" fill="#536DFE"/>
<path d="M150.793 266.918C149.263 266.918 147.795 267.526 146.713 268.609C145.631 269.692 145.023 271.16 145.023 272.692C145.023 274.223 145.631 275.692 146.713 276.774C147.795 277.857 149.263 278.465 150.793 278.465H266.194C267.724 278.465 269.191 277.857 270.274 276.774C271.356 275.692 271.964 274.223 271.964 272.692C271.964 271.16 271.356 269.692 270.274 268.609C269.191 267.526 267.724 266.918 266.194 266.918H150.793Z" fill="#536DFE"/>
<path d="M150.793 294.454C149.263 294.454 147.795 295.062 146.713 296.145C145.631 297.228 145.023 298.696 145.023 300.227C145.023 301.759 145.631 303.227 146.713 304.31C147.795 305.393 149.263 306.001 150.793 306.001H266.194C267.724 306.001 269.191 305.393 270.274 304.31C271.356 303.227 271.964 301.759 271.964 300.227C271.964 298.696 271.356 297.228 270.274 296.145C269.191 295.062 267.724 294.454 266.194 294.454H150.793Z" fill="#536DFE"/>
<path d="M108.183 98.1512C106.653 98.1512 105.185 98.7595 104.103 99.8423C103.021 100.925 102.413 102.394 102.413 103.925C102.413 105.456 103.021 106.925 104.103 108.007C105.185 109.09 106.653 109.698 108.183 109.698H223.584C225.114 109.698 226.582 109.09 227.664 108.007C228.746 106.925 229.354 105.456 229.354 103.925C229.354 102.394 228.746 100.925 227.664 99.8423C226.582 98.7595 225.114 98.1512 223.584 98.1512H108.183Z" fill="#536DFE"/>
<path d="M108.183 125.687C106.653 125.687 105.185 126.295 104.103 127.378C103.021 128.461 102.413 129.929 102.413 131.46C102.413 132.992 103.021 134.46 104.103 135.543C105.185 136.626 106.653 137.234 108.183 137.234H223.584C225.114 137.234 226.582 136.626 227.664 135.543C228.746 134.46 229.354 132.992 229.354 131.46C229.354 129.929 228.746 128.461 227.664 127.378C226.582 126.295 225.114 125.687 223.584 125.687H108.183Z" fill="#536DFE"/>
<path d="M108.183 153.223C106.653 153.223 105.185 153.831 104.103 154.914C103.021 155.996 102.413 157.465 102.413 158.996C102.413 160.527 103.021 161.996 104.103 163.079C105.185 164.161 106.653 164.77 108.183 164.77H223.584C225.114 164.77 226.582 164.161 227.664 163.079C228.746 161.996 229.354 160.527 229.354 158.996C229.354 157.465 228.746 155.996 227.664 154.914C226.582 153.831 225.114 153.223 223.584 153.223H108.183Z" fill="#536DFE"/>
<path d="M124.606 26.6474C129.508 26.6474 133.483 22.6706 133.483 17.7649C133.483 12.8593 129.508 8.88245 124.606 8.88245C119.703 8.88245 115.729 12.8593 115.729 17.7649C115.729 22.6706 119.703 26.6474 124.606 26.6474Z" fill="#E6E6E6"/>
</g>
<defs>
<clipPath id="clip0_7_99">
<rect width="643" height="461" fill="white"/>
</clipPath>
</defs>
</svg>
