<svg width="410" height="535" viewBox="0 0 410 535" fill="none" xmlns="http://www.w3.org/2000/svg">
<g clip-path="url(#clip0_7_139)">
<path d="M269.68 62.4719H20.3081C14.924 62.4783 9.76236 64.6185 5.95526 68.423C2.14816 72.2275 0.00648283 77.3856 0 82.7659L0 224.636C0.00648283 230.017 2.14816 235.175 5.95526 238.979C9.76236 242.784 14.924 244.924 20.3081 244.93H269.68C275.064 244.924 280.225 242.784 284.033 238.979C287.84 235.175 289.981 230.017 289.988 224.636V82.7659C289.981 77.3856 287.84 72.2275 284.033 68.423C280.225 64.6185 275.064 62.4783 269.68 62.4719ZM288.198 224.636C288.198 229.544 286.247 234.251 282.774 237.722C279.301 241.192 274.591 243.142 269.68 243.142H20.3081C17.8763 243.142 15.4683 242.663 13.2215 241.733C10.9748 240.803 8.93341 239.44 7.21385 237.722C5.49429 236.003 4.13026 233.963 3.19964 231.718C2.26903 229.473 1.79005 227.067 1.79005 224.636V203.498C1.79005 166.57 16.4698 131.154 42.5998 105.042C68.7299 78.9302 104.17 64.2607 141.123 64.2607H269.68C274.591 64.2607 279.301 66.2103 282.774 69.6807C286.247 73.1511 288.198 77.858 288.198 82.7659V224.636Z" fill="#536DFE"/>
<path d="M153.561 138.69H44.4995V140.479H153.561V138.69Z" fill="#E6E6E6"/>
<path d="M220.595 157.663H44.6913V159.451H220.595V157.663Z" fill="#E6E6E6"/>
<path d="M154.839 146.546C158.794 146.546 161.999 143.342 161.999 139.391C161.999 135.439 158.794 132.235 154.839 132.235C150.885 132.235 147.679 135.439 147.679 139.391C147.679 143.342 150.885 146.546 154.839 146.546Z" fill="#E6E6E6"/>
<path d="M43.8562 146.546C47.8106 146.546 51.0164 143.342 51.0164 139.391C51.0164 135.439 47.8106 132.235 43.8562 132.235C39.9017 132.235 36.696 135.439 36.696 139.391C36.696 143.342 39.9017 146.546 43.8562 146.546Z" fill="#E6E6E6"/>
<path d="M153.561 176.255H44.4995V178.044H153.561V176.255Z" fill="#E6E6E6"/>
<path d="M154.839 184.111C158.794 184.111 161.999 180.907 161.999 176.956C161.999 173.004 158.794 169.8 154.839 169.8C150.885 169.8 147.679 173.004 147.679 176.956C147.679 180.907 150.885 184.111 154.839 184.111Z" fill="#E6E6E6"/>
<path d="M43.8562 184.111C47.8106 184.111 51.0164 180.907 51.0164 176.956C51.0164 173.004 47.8106 169.8 43.8562 169.8C39.9017 169.8 36.696 173.004 36.696 176.956C36.696 180.907 39.9017 184.111 43.8562 184.111Z" fill="#E6E6E6"/>
<path d="M153.561 195.037H44.4995V196.826H153.561V195.037Z" fill="#E6E6E6"/>
<path d="M154.839 202.893C158.794 202.893 161.999 199.69 161.999 195.738C161.999 191.786 158.794 188.583 154.839 188.583C150.885 188.583 147.679 191.786 147.679 195.738C147.679 199.69 150.885 202.893 154.839 202.893Z" fill="#E6E6E6"/>
<path d="M43.8562 202.893C47.8106 202.893 51.0164 199.69 51.0164 195.738C51.0164 191.786 47.8106 188.583 43.8562 188.583C39.9017 188.583 36.696 191.786 36.696 195.738C36.696 199.69 39.9017 202.893 43.8562 202.893Z" fill="#E6E6E6"/>
<path d="M44.7512 165.328C48.7057 165.328 51.9114 162.125 51.9114 158.173C51.9114 154.221 48.7057 151.018 44.7512 151.018C40.7967 151.018 37.591 154.221 37.591 158.173C37.591 162.125 40.7967 165.328 44.7512 165.328Z" fill="#E6E6E6"/>
<path d="M222.385 165.304C226.34 165.304 229.546 162.101 229.546 158.149C229.546 154.197 226.34 150.994 222.385 150.994C218.431 150.994 215.225 154.197 215.225 158.149C215.225 162.101 218.431 165.304 222.385 165.304Z" fill="#E6E6E6"/>
<path d="M220.595 214.01H44.6913V215.799H220.595V214.01Z" fill="#E6E6E6"/>
<path d="M44.7512 221.676C48.7057 221.676 51.9114 218.472 51.9114 214.521C51.9114 210.569 48.7057 207.365 44.7512 207.365C40.7967 207.365 37.591 210.569 37.591 214.521C37.591 218.472 40.7967 221.676 44.7512 221.676Z" fill="#E6E6E6"/>
<path d="M222.385 221.652C226.34 221.652 229.546 218.448 229.546 214.496C229.546 210.545 226.34 207.341 222.385 207.341C218.431 207.341 215.225 210.545 215.225 214.496C215.225 218.448 218.431 221.652 222.385 221.652Z" fill="#E6E6E6"/>
<path d="M260.752 80.0646H228.77C225.094 80.0646 222.114 83.0426 222.114 86.7163V118.675C222.114 122.349 225.094 125.327 228.77 125.327H260.752C264.428 125.327 267.408 122.349 267.408 118.675V86.7163C267.408 83.0426 264.428 80.0646 260.752 80.0646Z" fill="#3F3D56"/>
<path d="M248.09 85.7021H255.11C256.876 85.7021 258.569 86.4029 259.817 87.6504C261.065 88.8978 261.767 90.5897 261.767 92.3538V113.038C261.767 114.802 261.065 116.494 259.817 117.741C258.569 118.989 256.876 119.69 255.11 119.69H234.412C232.647 119.69 230.954 118.989 229.705 117.741C228.457 116.494 227.756 114.802 227.756 113.038V106.022C227.756 103.354 228.282 100.712 229.303 98.2462C230.325 95.7808 231.823 93.5407 233.711 91.6538C235.6 89.7669 237.841 88.2701 240.308 87.2489C242.775 86.2277 245.42 85.7021 248.09 85.7021Z" fill="#536DFE"/>
<path d="M243.419 78.9941C243.242 79.1703 243.102 79.3794 243.007 79.6096C242.912 79.8398 242.862 80.0865 242.862 80.3357C242.862 80.5849 242.912 80.8316 243.007 81.0618C243.102 81.292 243.242 81.5011 243.419 81.6773C243.551 81.806 243.702 81.9145 243.866 81.9992V86.5581H245.656V81.9992C245.82 81.9145 245.971 81.806 246.104 81.6773C246.46 81.3215 246.66 80.8389 246.66 80.3357C246.66 79.8325 246.46 79.3499 246.104 78.9941C245.748 78.6383 245.265 78.4384 244.761 78.4384C244.257 78.4384 243.775 78.6383 243.419 78.9941Z" fill="#3F3D56"/>
<path d="M247.894 78.9941C247.717 79.1703 247.577 79.3794 247.482 79.6096C247.387 79.8398 247.338 80.0865 247.338 80.3357C247.338 80.5849 247.387 80.8316 247.482 81.0618C247.577 81.292 247.717 81.5011 247.894 81.6773C248.026 81.806 248.177 81.9145 248.341 81.9992V86.5581H250.131V81.9992C250.295 81.9145 250.446 81.806 250.579 81.6773C250.935 81.3215 251.135 80.8389 251.135 80.3357C251.135 79.8325 250.935 79.3499 250.579 78.9941C250.223 78.6383 249.74 78.4384 249.236 78.4384C248.733 78.4384 248.25 78.6383 247.894 78.9941Z" fill="#3F3D56"/>
<path d="M252.369 78.9941C252.192 79.1703 252.053 79.3794 251.957 79.6096C251.862 79.8398 251.813 80.0865 251.813 80.3357C251.813 80.5849 251.862 80.8316 251.957 81.0618C252.053 81.292 252.192 81.5011 252.369 81.6773C252.501 81.806 252.652 81.9145 252.816 81.9992V86.5581H254.606V81.9992C254.77 81.9145 254.921 81.806 255.054 81.6773C255.41 81.3215 255.61 80.8389 255.61 80.3357C255.61 79.8325 255.41 79.3499 255.054 78.9941C254.698 78.6383 254.215 78.4384 253.711 78.4384C253.208 78.4384 252.725 78.6383 252.369 78.9941Z" fill="#3F3D56"/>
<path d="M245.656 123.246V118.687H243.866V123.246C243.702 123.33 243.551 123.439 243.419 123.567C243.153 123.833 242.972 124.171 242.899 124.539C242.826 124.907 242.863 125.288 243.007 125.635C243.151 125.982 243.394 126.278 243.706 126.487C244.018 126.695 244.386 126.806 244.761 126.806C245.137 126.806 245.504 126.695 245.816 126.487C246.128 126.278 246.371 125.982 246.515 125.635C246.659 125.288 246.696 124.907 246.623 124.539C246.55 124.171 246.369 123.833 246.104 123.567C245.971 123.439 245.82 123.33 245.656 123.246Z" fill="#3F3D56"/>
<path d="M241.181 123.246V118.687H239.391V123.246C239.227 123.33 239.076 123.439 238.943 123.567C238.678 123.833 238.497 124.171 238.424 124.539C238.35 124.907 238.388 125.288 238.532 125.635C238.675 125.982 238.919 126.278 239.231 126.487C239.543 126.695 239.91 126.806 240.286 126.806C240.661 126.806 241.028 126.695 241.341 126.487C241.653 126.278 241.896 125.982 242.04 125.635C242.184 125.288 242.221 124.907 242.148 124.539C242.075 124.171 241.894 123.833 241.628 123.567C241.496 123.439 241.345 123.33 241.181 123.246Z" fill="#3F3D56"/>
<path d="M236.706 123.246V118.687H234.916V123.246C234.752 123.33 234.601 123.439 234.468 123.567C234.203 123.833 234.022 124.171 233.949 124.539C233.875 124.907 233.913 125.288 234.057 125.635C234.2 125.982 234.444 126.278 234.756 126.487C235.068 126.695 235.435 126.806 235.811 126.806C236.186 126.806 236.553 126.695 236.866 126.487C237.178 126.278 237.421 125.982 237.565 125.635C237.709 125.288 237.746 124.907 237.673 124.539C237.6 124.171 237.419 123.833 237.153 123.567C237.021 123.439 236.87 123.33 236.706 123.246Z" fill="#3F3D56"/>
<path d="M265.273 95.4671C265.539 95.7325 265.877 95.9132 266.245 95.9864C266.614 96.0596 266.995 96.022 267.342 95.8784C267.689 95.7348 267.986 95.4916 268.194 95.1796C268.403 94.8676 268.514 94.5008 268.514 94.1255C268.514 93.7502 268.403 93.3834 268.194 93.0714C267.986 92.7594 267.689 92.5162 267.342 92.3726C266.995 92.229 266.614 92.1914 266.245 92.2646C265.877 92.3378 265.539 92.5185 265.273 92.7839C265.144 92.9163 265.036 93.067 264.951 93.2311H260.389V95.0199H264.951C265.036 95.184 265.144 95.3347 265.273 95.4671Z" fill="#3F3D56"/>
<path d="M265.273 97.2559C265.144 97.3883 265.036 97.539 264.951 97.7031H260.389V99.4919H264.951C265.036 99.656 265.144 99.8067 265.273 99.9391C265.539 100.204 265.877 100.385 266.245 100.458C266.614 100.532 266.995 100.494 267.342 100.35C267.689 100.207 267.986 99.9636 268.194 99.6516C268.403 99.3396 268.514 98.9728 268.514 98.5975C268.514 98.2223 268.403 97.8554 268.194 97.5434C267.986 97.2314 267.689 96.9882 267.342 96.8446C266.995 96.701 266.614 96.6634 266.245 96.7367C265.877 96.8099 265.539 96.9906 265.273 97.2559Z" fill="#3F3D56"/>
<path d="M265.273 101.728C265.144 101.86 265.036 102.011 264.951 102.175H260.389V103.964H264.951C265.036 104.128 265.144 104.279 265.273 104.411C265.539 104.676 265.877 104.857 266.245 104.93C266.614 105.004 266.995 104.966 267.342 104.822C267.689 104.679 267.986 104.436 268.194 104.124C268.403 103.812 268.514 103.445 268.514 103.07C268.514 102.694 268.403 102.327 268.194 102.015C267.986 101.703 267.689 101.46 267.342 101.317C266.995 101.173 266.614 101.135 266.245 101.209C265.877 101.282 265.539 101.463 265.273 101.728Z" fill="#3F3D56"/>
<path d="M265.273 106.2C265.144 106.332 265.036 106.483 264.951 106.647H260.389V108.436H264.951C265.036 108.6 265.144 108.751 265.273 108.883C265.539 109.149 265.877 109.329 266.245 109.402C266.614 109.476 266.995 109.438 267.342 109.294C267.689 109.151 267.986 108.908 268.194 108.596C268.403 108.284 268.514 107.917 268.514 107.542C268.514 107.166 268.403 106.799 268.194 106.487C267.986 106.175 267.689 105.932 267.342 105.789C266.995 105.645 266.614 105.608 266.245 105.681C265.877 105.754 265.539 105.935 265.273 106.2Z" fill="#3F3D56"/>
<path d="M265.273 110.672C265.144 110.804 265.036 110.955 264.951 111.119H260.389V112.908H264.951C265.036 113.072 265.144 113.223 265.273 113.355C265.539 113.621 265.877 113.801 266.245 113.874C266.614 113.948 266.995 113.91 267.342 113.766C267.689 113.623 267.986 113.38 268.194 113.068C268.403 112.756 268.514 112.389 268.514 112.014C268.514 111.638 268.403 111.272 268.194 110.959C267.986 110.647 267.689 110.404 267.342 110.261C266.995 110.117 266.614 110.08 266.245 110.153C265.877 110.226 265.539 110.407 265.273 110.672Z" fill="#3F3D56"/>
<path d="M224.249 110.672C223.983 110.407 223.645 110.226 223.277 110.153C222.909 110.08 222.527 110.117 222.18 110.261C221.833 110.404 221.536 110.647 221.328 110.959C221.119 111.272 221.008 111.638 221.008 112.014C221.008 112.389 221.119 112.756 221.328 113.068C221.536 113.38 221.833 113.623 222.18 113.766C222.527 113.91 222.909 113.948 223.277 113.874C223.645 113.801 223.983 113.621 224.249 113.355C224.378 113.223 224.486 113.072 224.571 112.908H229.133V111.119H224.571C224.486 110.955 224.378 110.804 224.249 110.672Z" fill="#3F3D56"/>
<path d="M224.249 106.2C223.983 105.935 223.645 105.754 223.277 105.681C222.909 105.608 222.527 105.645 222.18 105.789C221.833 105.932 221.536 106.175 221.328 106.487C221.119 106.799 221.008 107.166 221.008 107.542C221.008 107.917 221.119 108.284 221.328 108.596C221.536 108.908 221.833 109.151 222.18 109.294C222.527 109.438 222.909 109.476 223.277 109.402C223.645 109.329 223.983 109.149 224.249 108.883C224.378 108.751 224.486 108.6 224.571 108.436H229.133V106.647H224.571C224.486 106.483 224.378 106.332 224.249 106.2Z" fill="#3F3D56"/>
<path d="M384.325 94.3153L361.592 199.041L365.592 226.991C375.67 236.543 367.038 283.427 359.431 292.81C359.431 292.81 342.455 252.258 317.323 251.954C310.262 251.873 303.361 252.007 297.275 252.509C292.902 252.795 288.563 253.462 284.306 254.503C261.035 260.764 264.034 252.705 264.034 252.705L282.803 107.078L296.935 92.5265L308.257 80.8721L313.403 68.1626L348.811 65.1309L354.476 78.3941L366.702 80.2013L375.446 81.4888C376.894 81.7033 378.281 82.2124 379.524 82.9846C380.766 83.7569 381.836 84.7757 382.669 85.9781C383.501 87.1806 384.077 88.5409 384.362 89.975C384.647 91.4091 384.634 92.8863 384.325 94.3153Z" fill="#2F2E41"/>
<path d="M366.702 80.2013L352.975 95.8489L348.691 96.9347L347.633 101.939L317.529 136.254L303.113 105.644L298.569 103.196L299.795 98.5974L296.935 92.5262L300.359 87.0963L304.834 82.6243L308.256 80.8721L313.402 68.1626L348.811 65.1306L354.476 78.3946L360.326 77.2578L366.702 80.2013Z" fill="#536DFE"/>
<path d="M246.947 273.397L255.36 247.881L270.618 250.65L260.762 277.311C261.369 278.871 261.528 280.568 261.223 282.213C260.917 283.858 260.158 285.385 259.032 286.623C257.905 287.861 256.456 288.76 254.846 289.219C253.236 289.679 251.53 289.681 249.919 289.224C248.308 288.768 246.857 287.872 245.728 286.636C244.599 285.401 243.837 283.875 243.529 282.231C243.22 280.586 243.376 278.888 243.98 277.328C244.584 275.768 245.611 274.406 246.947 273.397Z" fill="#FFB6B6"/>
<path d="M289.853 105.267L282.803 107.078L265.069 188.141L261.231 191.977L262.822 195.469L261.231 201.61L249.532 259.915L275.437 270.223L301.823 149.889L289.853 105.267Z" fill="#2F2E41"/>
<path d="M329.849 520.889L317.921 520.888L312.246 474.911L329.851 474.912L329.849 520.889Z" fill="#FFB6B6"/>
<path d="M330.268 533.324L293.588 533.322V532.859C293.588 529.075 295.093 525.446 297.77 522.771C300.447 520.095 304.079 518.592 307.865 518.592H307.866L314.566 513.512L327.067 518.593L330.269 518.593L330.268 533.324Z" fill="#2F2E41"/>
<path d="M264.512 520.889L252.584 520.888L246.909 474.911L264.515 474.912L264.512 520.889Z" fill="#FFB6B6"/>
<path d="M264.932 533.324L228.251 533.322V532.859C228.252 529.075 229.756 525.446 232.433 522.771C235.111 520.095 238.742 518.592 242.528 518.592H242.529L249.229 513.512L261.73 518.593L264.932 518.593L264.932 533.324Z" fill="#2F2E41"/>
<path d="M361.437 519.497C361.853 519.516 362.265 519.407 362.617 519.185C362.969 518.962 363.243 518.637 363.404 518.253C363.565 517.869 363.603 517.445 363.515 517.038C363.426 516.631 363.215 516.262 362.909 515.979L362.77 515.426C362.788 515.382 362.807 515.338 362.825 515.294C363.244 514.304 363.947 513.461 364.844 512.869C365.741 512.278 366.793 511.964 367.868 511.968C368.943 511.972 369.993 512.293 370.886 512.892C371.779 513.49 372.475 514.339 372.886 515.331C374.532 519.292 376.627 523.259 377.143 527.447C377.37 529.298 377.274 531.174 376.86 532.992C380.725 524.567 382.732 515.41 382.745 506.142C382.745 503.816 382.616 501.492 382.357 499.181C382.143 497.286 381.847 495.404 381.467 493.537C379.395 483.402 374.948 473.903 368.489 465.819C365.363 464.115 362.835 461.494 361.246 458.309C360.67 457.165 360.263 455.943 360.037 454.681C360.39 454.728 361.367 449.361 361.101 449.032C361.593 448.286 362.472 447.916 363.009 447.189C365.678 443.572 369.356 444.204 371.275 449.118C375.377 451.187 375.416 454.617 372.9 457.916C371.299 460.015 371.079 462.856 369.674 465.103C369.819 465.288 369.969 465.467 370.114 465.652C372.755 469.046 375.058 472.692 376.988 476.535C376.519 472.229 377.079 467.874 378.623 463.826C380.188 460.054 383.12 456.877 385.703 453.617C386.386 452.741 387.314 452.087 388.369 451.737C389.423 451.388 390.558 451.359 391.63 451.654C392.701 451.95 393.661 452.555 394.387 453.396C395.114 454.236 395.575 455.272 395.713 456.374C395.718 456.422 395.723 456.47 395.728 456.518C395.345 456.735 394.969 456.964 394.602 457.207C394.14 457.515 393.783 457.956 393.576 458.47C393.369 458.985 393.323 459.55 393.443 460.092C393.563 460.633 393.844 461.126 394.249 461.505C394.654 461.885 395.164 462.133 395.713 462.217L395.769 462.226C395.632 463.607 395.391 464.977 395.046 466.322C398.359 479.126 391.206 483.789 380.993 483.999C380.767 484.114 380.548 484.23 380.322 484.34C382.262 489.832 383.478 495.553 383.941 501.358C384.203 504.783 384.188 508.224 383.895 511.647L383.912 511.525C384.652 507.72 386.684 504.285 389.664 501.803C394.091 498.169 400.344 496.831 405.12 493.911C405.627 493.585 406.217 493.411 406.82 493.41C407.423 493.408 408.014 493.579 408.524 493.902C409.033 494.225 409.439 494.687 409.694 495.233C409.949 495.78 410.042 496.387 409.963 496.985L409.943 497.112C409.232 497.402 408.538 497.736 407.868 498.112C407.484 498.328 407.109 498.557 406.742 498.8C406.28 499.108 405.922 499.549 405.715 500.063C405.509 500.578 405.462 501.143 405.582 501.685C405.702 502.226 405.983 502.719 406.388 503.098C406.793 503.478 407.304 503.726 407.852 503.81L407.909 503.819C407.949 503.825 407.984 503.831 408.024 503.836C406.808 506.739 405.101 509.41 402.977 511.733C400.906 522.911 392.008 523.971 382.49 520.716H382.484C381.44 525.251 379.927 529.665 377.97 533.888H361.841C361.783 533.708 361.731 533.524 361.679 533.344C363.172 533.438 364.671 533.349 366.142 533.079C364.945 531.612 363.749 530.133 362.552 528.665C362.525 528.638 362.5 528.609 362.477 528.579C361.87 527.828 361.257 527.082 360.65 526.331L360.65 526.331C360.618 524.029 360.882 521.732 361.437 519.497Z" fill="#536DFE"/>
<path d="M181.044 533.936C181.043 534.076 181.07 534.214 181.124 534.343C181.177 534.473 181.256 534.59 181.355 534.689C181.454 534.788 181.571 534.867 181.701 534.92C181.83 534.973 181.969 535 182.109 535H408.809C409.092 535 409.363 534.888 409.563 534.688C409.762 534.489 409.874 534.218 409.874 533.936C409.874 533.653 409.762 533.383 409.563 533.183C409.363 532.983 409.092 532.871 408.809 532.871H182.109C181.969 532.871 181.83 532.898 181.701 532.951C181.571 533.005 181.454 533.083 181.355 533.182C181.256 533.281 181.177 533.399 181.124 533.528C181.07 533.657 181.043 533.796 181.044 533.936Z" fill="#CCCCCC"/>
<path d="M360.026 236.682L267.179 241.129L242.119 356.045L249.279 374.86L239.167 383.792L249.279 396.326L246.672 461.243L240.557 477.022L245.242 496.875L266.513 495.804L285.388 394.81L282.459 383.145L289.479 372.918L297.94 327.649L303.939 371.517L302.905 391.046L308.414 411.766L311.474 500.452L332.475 500.723L336.992 491.818L332.059 479.881L336.992 471.535C336.992 471.535 352.664 397.398 344.152 381.398L358.678 301.288L356.91 289.197L362.675 279.243L370.08 238.405L360.026 236.682Z" fill="#2F2E41"/>
<path d="M276.051 105.242L300.248 116.951L295.483 131.697L270.342 118.408C268.715 118.803 267.01 118.737 265.418 118.217C263.827 117.697 262.413 116.743 261.334 115.464C260.255 114.184 259.555 112.629 259.312 110.974C259.07 109.318 259.294 107.628 259.959 106.093C260.625 104.558 261.706 103.239 263.081 102.284C264.456 101.329 266.07 100.777 267.742 100.688C269.413 100.6 271.077 100.979 272.545 101.784C274.013 102.588 275.227 103.786 276.051 105.242Z" fill="#FFB6B6"/>
<path d="M350.272 172.075C347.077 170.39 344.611 167.594 343.341 164.215L281.728 133.57L293.165 108.109L347.96 133.57L365.408 83.0092L368.774 83.6447C372.856 84.4153 376.475 86.7493 378.859 90.1488C381.243 93.5482 382.204 97.744 381.536 101.841L371.813 161.477C371.423 163.787 370.488 165.971 369.087 167.85C367.687 169.729 365.859 171.248 363.756 172.283C361.652 173.318 359.333 173.838 356.989 173.802C354.645 173.766 352.343 173.174 350.272 172.075Z" fill="#2F2E41"/>
<path d="M317.323 251.954C309.865 259.591 303.084 257.4 297.275 252.509L309.322 233.565L317.323 251.954Z" fill="#536DFE"/>
<path d="M327.311 62.5998C341.481 62.5998 352.968 51.1206 352.968 36.9604C352.968 22.8001 341.481 11.3209 327.311 11.3209C313.141 11.3209 301.654 22.8001 301.654 36.9604C301.654 51.1206 313.141 62.5998 327.311 62.5998Z" fill="#FFB6B6"/>
<path d="M356.937 47.6717C355.985 46.7808 354.81 46.1628 353.536 45.8829C354.932 46.6428 355.112 48.3696 355.084 50.1226C355.084 50.444 355.067 50.7576 355.057 51.0703C353.309 53.734 351.064 56.036 348.443 57.8499C348.443 57.8499 339.842 61.079 335.6 61.4363C337.819 58.2255 340.943 52.4835 343.162 49.2815C344.414 47.6636 345.396 45.8544 346.071 43.9238C346.399 42.9524 346.488 41.9169 346.332 40.9038C346.177 39.8908 345.78 38.9298 345.176 38.1014C344.542 37.3423 343.684 36.8019 342.725 36.5567C341.767 36.3114 340.755 36.3737 339.833 36.7348C338.912 37.0959 338.127 37.7374 337.591 38.5686C337.054 39.3998 336.793 40.3786 336.844 41.3663C335.269 40.713 336.496 38.1477 335.331 36.8856C333.568 34.9754 333.308 33.163 335.985 31.8493C337.477 31.1174 334.087 29.0683 332.476 28.6027C330.845 28.22 329.15 28.1988 327.509 28.5407C322.774 29.2648 318.147 30.9103 313.35 30.8213C312.387 30.8021 311.429 30.6971 310.485 30.5077C311.399 27.8975 311.389 25.0533 310.458 22.4493C309.403 24.8089 307.916 26.9507 306.073 28.7643C304.085 27.6385 302.611 25.7872 301.96 23.5987L301.965 23.5856C302.185 23.4635 302.4 23.3365 302.609 23.2048C302.905 23.0093 303.133 22.727 303.262 22.3968C303.391 22.0665 303.414 21.7044 303.329 21.3604C303.243 21.0163 303.053 20.7072 302.785 20.4756C302.516 20.2439 302.183 20.101 301.83 20.0666L301.777 20.0613C301.966 18.7789 302.359 17.5349 302.941 16.3763C303.46 15.3435 304.084 14.3666 304.802 13.4607C305.49 13.5265 306.183 13.5207 306.869 13.4432L306.915 13.4391C307.232 13.4009 307.529 13.2623 307.761 13.0435C307.994 12.8247 308.151 12.5373 308.208 12.2232C308.266 11.9091 308.221 11.5848 308.081 11.2978C307.941 11.0108 307.713 10.7762 307.43 10.6282C307.38 10.6007 307.33 10.5731 307.281 10.5451L307.28 10.5395C308.645 9.08703 310.093 7.56493 311.998 6.9588C313.815 6.38583 316.142 6.93173 316.974 8.65764C321.62 3.63098 329.568 -3.50592 333.846 1.97668C338.187 7.55246 346.269 5.93097 351.576 12.6646C350.269 13.4261 349.123 14.4348 348.201 15.6338C349.884 15.3794 351.593 15.3432 353.286 15.5264C353.673 16.2708 353.88 17.0953 353.891 17.9341C353.901 18.7728 353.715 19.6025 353.348 20.3565C354.888 21.8684 357.966 24.5692 355.944 24.9805C357.893 28.4147 359 32.262 359.173 36.2066C359.345 40.1512 358.579 44.0805 356.937 47.6717Z" fill="#2F2E41"/>
<path d="M225.071 87.2198C229.025 87.2198 232.231 84.0163 232.231 80.0646C232.231 76.1128 229.025 72.9093 225.071 72.9093C221.116 72.9093 217.91 76.1128 217.91 80.0646C217.91 84.0163 221.116 87.2198 225.071 87.2198Z" fill="#536DFE"/>
</g>
<defs>
<clipPath id="clip0_7_139">
<rect width="410" height="535" fill="white"/>
</clipPath>
</defs>
</svg>
