<svg width="335" height="274" viewBox="0 0 335 274" fill="none" xmlns="http://www.w3.org/2000/svg">
<g clip-path="url(#clip0_60_55)">
<path d="M249.264 214.751H145.395C143.736 214.749 142.146 214.091 140.974 212.92C139.801 211.75 139.142 210.163 139.14 208.508V133.976C139.142 132.321 139.801 130.734 140.974 129.564C142.146 128.394 143.736 127.735 145.395 127.734H249.264C250.922 127.735 252.512 128.394 253.685 129.564C254.857 130.734 255.517 132.321 255.519 133.976V208.508C255.517 210.163 254.857 211.75 253.685 212.92C252.512 214.091 250.922 214.749 249.264 214.751Z" fill="#E6E6E6"/>
<path d="M147.315 209.775H247.344C248.148 209.775 248.92 209.456 249.489 208.888C250.057 208.32 250.377 207.551 250.377 206.748V135.736C250.377 134.934 250.057 134.164 249.489 133.596C248.92 133.029 248.148 132.71 247.344 132.71H147.315C146.511 132.71 145.739 133.029 145.17 133.596C144.602 134.164 144.282 134.934 144.282 135.736V206.748C144.282 207.551 144.602 208.32 145.17 208.888C145.739 209.456 146.511 209.775 147.315 209.775Z" fill="white"/>
<path d="M110.124 114.69H6.25489C4.59657 114.689 3.0067 114.03 1.83408 112.86C0.661471 111.69 0.00187324 110.103 0 108.448V33.9158C0.00187224 32.2608 0.66147 30.6741 1.83408 29.5038C3.0067 28.3335 4.59657 27.6752 6.25489 27.6733H110.124C111.782 27.6752 113.372 28.3335 114.545 29.5038C115.717 30.6741 116.377 32.2608 116.379 33.9158V108.448C116.377 110.103 115.717 111.69 114.545 112.86C113.372 114.03 111.782 114.689 110.124 114.69Z" fill="#E6E6E6"/>
<path d="M8.17525 109.714H108.205C109.009 109.714 109.78 109.395 110.349 108.828C110.918 108.26 111.237 107.49 111.237 106.688V35.6762C111.237 34.8734 110.918 34.1036 110.349 33.536C109.78 32.9684 109.009 32.6495 108.205 32.6495H8.17525C7.37094 32.6495 6.59956 32.9684 6.03083 33.536C5.46209 34.1036 5.14258 34.8734 5.14258 35.6762V106.688C5.14258 107.49 5.46209 108.26 6.03083 108.828C6.59956 109.395 7.37094 109.714 8.17525 109.714Z" fill="white"/>
<path d="M235.42 154.774H171.525C171.225 154.774 170.929 154.833 170.652 154.948C170.375 155.062 170.123 155.23 169.912 155.441C169.7 155.653 169.532 155.904 169.417 156.18C169.302 156.457 169.243 156.753 169.243 157.052C169.243 157.351 169.302 157.647 169.417 157.923C169.532 158.2 169.7 158.451 169.912 158.662C170.123 158.874 170.375 159.041 170.652 159.156C170.929 159.27 171.225 159.329 171.525 159.329H235.42C236.025 159.329 236.606 159.089 237.034 158.662C237.462 158.235 237.702 157.656 237.702 157.052C237.702 156.448 237.462 155.869 237.034 155.441C236.606 155.014 236.025 154.774 235.42 154.774Z" fill="#E6E6E6"/>
<path d="M171.525 168.789C171.225 168.789 170.929 168.848 170.652 168.963C170.375 169.077 170.123 169.245 169.912 169.457C169.7 169.668 169.532 169.919 169.417 170.195C169.302 170.472 169.243 170.768 169.243 171.067C169.243 171.366 169.302 171.662 169.417 171.938C169.532 172.215 169.7 172.466 169.912 172.677C170.123 172.889 170.375 173.057 170.652 173.171C170.929 173.285 171.225 173.344 171.525 173.344H235.42C236.025 173.344 236.606 173.104 237.034 172.677C237.462 172.25 237.702 171.671 237.702 171.067C237.702 170.463 237.462 169.884 237.034 169.457C236.606 169.029 236.025 168.789 235.42 168.789H171.525Z" fill="#E6E6E6"/>
<path d="M171.525 182.805C170.92 182.805 170.339 183.045 169.912 183.472C169.484 183.899 169.243 184.478 169.243 185.082C169.243 185.686 169.484 186.265 169.912 186.692C170.339 187.12 170.92 187.36 171.525 187.36H235.42C236.025 187.36 236.606 187.12 237.034 186.692C237.462 186.265 237.702 185.686 237.702 185.082C237.702 184.478 237.462 183.899 237.034 183.472C236.606 183.045 236.025 182.805 235.42 182.805H171.525Z" fill="#E6E6E6"/>
<path d="M159.413 160.03C160.964 160.03 162.222 158.775 162.222 157.227C162.222 155.679 160.964 154.424 159.413 154.424C157.862 154.424 156.604 155.679 156.604 157.227C156.604 158.775 157.862 160.03 159.413 160.03Z" fill="#536DFE"/>
<path d="M159.413 174.045C160.964 174.045 162.222 172.79 162.222 171.242C162.222 169.694 160.964 168.439 159.413 168.439C157.862 168.439 156.604 169.694 156.604 171.242C156.604 172.79 157.862 174.045 159.413 174.045Z" fill="#E6E6E6"/>
<path d="M159.413 188.06C160.964 188.06 162.222 186.805 162.222 185.257C162.222 183.709 160.964 182.454 159.413 182.454C157.862 182.454 156.604 183.709 156.604 185.257C156.604 186.805 157.862 188.06 159.413 188.06Z" fill="#E6E6E6"/>
<path d="M209.967 157.052C209.967 157.351 209.908 157.647 209.794 157.923C209.679 158.2 209.511 158.451 209.299 158.662C209.087 158.874 208.836 159.041 208.559 159.156C208.282 159.27 207.985 159.329 207.685 159.329H171.607C171.044 159.338 170.496 159.142 170.065 158.779C169.634 158.416 169.349 157.91 169.263 157.354C169.22 157.033 169.247 156.706 169.341 156.395C169.435 156.085 169.595 155.798 169.809 155.553C170.023 155.309 170.287 155.113 170.583 154.979C170.879 154.845 171.2 154.775 171.525 154.774H207.685C208.291 154.774 208.871 155.014 209.299 155.441C209.727 155.869 209.967 156.448 209.967 157.052Z" fill="#536DFE"/>
<path d="M197.329 118.16C202.37 118.16 206.457 114.081 206.457 109.05C206.457 104.019 202.37 99.9403 197.329 99.9403C192.288 99.9403 188.201 104.019 188.201 109.05C188.201 114.081 192.288 118.16 197.329 118.16Z" fill="#E6E6E6"/>
<path d="M201.834 109.78C202.238 107.297 200.548 104.957 198.06 104.554C195.572 104.151 193.228 105.837 192.824 108.32C192.42 110.804 194.11 113.143 196.598 113.546C199.086 113.949 201.43 112.263 201.834 109.78Z" fill="white"/>
<path d="M15.5691 69.0178C14.9693 69.0178 14.3941 69.2556 13.97 69.6789C13.5459 70.1022 13.3076 70.6762 13.3076 71.2748C13.3076 71.8734 13.5459 72.4475 13.97 72.8708C14.3941 73.2941 14.9693 73.5318 15.5691 73.5318H100.809C101.409 73.5318 101.984 73.2941 102.409 72.8708C102.833 72.4475 103.071 71.8734 103.071 71.2748C103.071 70.6762 102.833 70.1022 102.409 69.6789C101.984 69.2556 101.409 69.0178 100.809 69.0178H15.5691Z" fill="#E6E6E6"/>
<path d="M15.5691 82.9071C14.9693 82.9071 14.3941 83.1449 13.97 83.5682C13.5459 83.9914 13.3076 84.5655 13.3076 85.1641C13.3076 85.7627 13.5459 86.3368 13.97 86.7601C14.3941 87.1833 14.9693 87.4211 15.5691 87.4211H100.809C101.409 87.4211 101.984 87.1833 102.409 86.7601C102.833 86.3368 103.071 85.7627 103.071 85.1641C103.071 84.5655 102.833 83.9914 102.409 83.5682C101.984 83.1449 101.409 82.9071 100.809 82.9071H15.5691Z" fill="#E6E6E6"/>
<path d="M53.6668 97.4908C53.067 97.4908 52.4918 97.7286 52.0677 98.1519C51.6435 98.5752 51.4053 99.1493 51.4053 99.7479C51.4053 100.346 51.6435 100.921 52.0677 101.344C52.4918 101.767 53.067 102.005 53.6668 102.005H62.7127C63.3124 102.005 63.8877 101.767 64.3118 101.344C64.7359 100.921 64.9741 100.346 64.9741 99.7479C64.9741 99.1493 64.7359 98.5752 64.3118 98.1519C63.8877 97.7286 63.3124 97.4908 62.7127 97.4908H53.6668Z" fill="#536DFE"/>
<path d="M46.0679 40.3588C45.8834 40.359 45.7065 40.4322 45.5761 40.5624C45.4456 40.6926 45.3723 40.8691 45.3721 41.0533V58.6822C45.3723 58.8664 45.4456 59.0429 45.5761 59.1731C45.7065 59.3033 45.8834 59.3765 46.0679 59.3767H70.3109C70.4953 59.3765 70.6722 59.3033 70.8027 59.1731C70.9331 59.0429 71.0065 58.8664 71.0067 58.6822V41.0533C71.0065 40.8691 70.9331 40.6926 70.8027 40.5624C70.6722 40.4322 70.4953 40.359 70.3109 40.3588L46.0679 40.3588Z" fill="#536DFE"/>
<path d="M58.1894 51.7376C60.3031 51.7376 62.0165 50.0275 62.0165 47.918C62.0165 45.8086 60.3031 44.0985 58.1894 44.0985C56.0758 44.0985 54.3623 45.8086 54.3623 47.918C54.3623 50.0275 56.0758 51.7376 58.1894 51.7376Z" fill="white"/>
<path d="M64.4519 57.6405C64.4533 58.2442 64.3101 58.8394 64.0344 59.3767H52.3443C52.0464 58.7944 51.9033 58.1455 51.9287 57.4921C51.954 56.8388 52.147 56.2029 52.4892 55.6453C52.8314 55.0878 53.3113 54.6272 53.8829 54.3078C54.4545 53.9884 55.0988 53.8207 55.7539 53.821H60.6248C61.6392 53.8204 62.6123 54.2221 63.3301 54.9375C64.0478 55.653 64.4513 56.6238 64.4519 57.6362V57.6405Z" fill="white"/>
<path d="M58.1894 51.7376C60.3031 51.7376 62.0165 50.0275 62.0165 47.918C62.0165 45.8086 60.3031 44.0985 58.1894 44.0985C56.0758 44.0985 54.3623 45.8086 54.3623 47.918C54.3623 50.0275 56.0758 51.7376 58.1894 51.7376Z" fill="white"/>
<path d="M64.4519 57.6405C64.4533 58.2442 64.3101 58.8394 64.0344 59.3767H52.3443C52.0464 58.7944 51.9033 58.1455 51.9287 57.4921C51.954 56.8388 52.147 56.2029 52.4892 55.6453C52.8314 55.0878 53.3113 54.6272 53.8829 54.3078C54.4545 53.9884 55.0988 53.8207 55.7539 53.821H60.6248C61.6392 53.8204 62.6123 54.2221 63.3301 54.9375C64.0478 55.653 64.4513 56.6238 64.4519 57.6362V57.6405Z" fill="white"/>
<path d="M58.1895 18.0561C63.1854 18.0561 67.2354 14.0141 67.2354 9.02804C67.2354 4.04199 63.1854 0 58.1895 0C53.1936 0 49.1436 4.04199 49.1436 9.02804C49.1436 14.0141 53.1936 18.0561 58.1895 18.0561Z" fill="#E6E6E6"/>
<path d="M58.1899 13.542C60.6879 13.542 62.7129 11.521 62.7129 9.02802C62.7129 6.535 60.6879 4.51401 58.1899 4.51401C55.692 4.51401 53.667 6.535 53.667 9.02802C53.667 11.521 55.692 13.542 58.1899 13.542Z" fill="#536DFE"/>
<path d="M283.6 269.087L279.266 269.087L277.205 252.404L283.601 252.404L283.6 269.087Z" fill="#FFB8B8"/>
<path d="M276.171 267.851H284.529V273.103H270.908C270.908 272.413 271.044 271.73 271.309 271.093C271.573 270.456 271.961 269.877 272.45 269.389C272.938 268.902 273.518 268.515 274.157 268.251C274.795 267.987 275.48 267.851 276.171 267.851Z" fill="#2F2E41"/>
<path d="M306.96 269.087L302.626 269.087L300.565 252.404L306.962 252.404L306.96 269.087Z" fill="#FFB8B8"/>
<path d="M299.531 267.851H307.889V273.103H294.269C294.269 272.413 294.405 271.73 294.669 271.093C294.934 270.456 295.321 269.877 295.81 269.389C296.299 268.902 296.879 268.515 297.517 268.251C298.156 267.987 298.84 267.851 299.531 267.851Z" fill="#2F2E41"/>
<path d="M294.268 150.489C299.41 150.489 303.578 146.328 303.578 141.196C303.578 136.064 299.41 131.904 294.268 131.904C289.126 131.904 284.957 136.064 284.957 141.196C284.957 146.328 289.126 150.489 294.268 150.489Z" fill="#FFB8B8"/>
<path d="M262.431 201.797C262.496 201.283 262.674 200.789 262.951 200.35C263.228 199.911 263.598 199.538 264.035 199.258C264.472 198.977 264.965 198.796 265.48 198.726C265.995 198.656 266.519 198.7 267.015 198.854L272.219 192.629L276.781 194.862L269.309 203.55C268.994 204.365 268.39 205.036 267.613 205.436C266.835 205.837 265.938 205.939 265.09 205.722C264.242 205.506 263.503 204.987 263.013 204.264C262.523 203.541 262.316 202.663 262.431 201.797Z" fill="#FFB8B8"/>
<path d="M307.214 208.093C306.992 207.624 306.876 207.113 306.874 206.594C306.872 206.075 306.984 205.562 307.202 205.092C307.42 204.621 307.739 204.203 308.136 203.869C308.533 203.534 308.999 203.291 309.5 203.155L310.545 195.116L315.595 194.558L313.96 205.89C314.132 206.747 313.984 207.636 313.543 208.39C313.102 209.144 312.399 209.711 311.567 209.982C310.736 210.254 309.833 210.212 309.031 209.864C308.229 209.515 307.582 208.886 307.214 208.093Z" fill="#FFB8B8"/>
<path d="M302.049 158.748C302.544 158.113 303.198 157.62 303.945 157.319C304.692 157.017 305.505 156.917 306.303 157.03C307.101 157.142 307.855 157.463 308.489 157.959C309.123 158.455 309.615 159.11 309.915 159.856L317.546 178.864C318.326 180.806 318.575 182.921 318.267 184.991L315.781 201.697C315.749 201.913 315.671 202.119 315.551 202.301C315.432 202.484 315.275 202.639 315.09 202.755C314.905 202.871 314.698 202.946 314.481 202.975C314.265 203.004 314.045 202.986 313.836 202.922L310.561 201.918C310.222 201.814 309.93 201.595 309.736 201.298C309.542 201.002 309.459 200.647 309.5 200.295C310.656 190.459 309.128 180.495 305.079 171.454L301.481 163.423C301.142 162.665 301.015 161.83 301.115 161.006C301.215 160.183 301.538 159.402 302.049 158.748Z" fill="#536DFE"/>
<path d="M296.535 150.488C297.936 150.518 299.328 150.252 300.619 149.708C301.91 149.163 303.071 148.351 304.025 147.327C304.979 146.302 305.706 145.088 306.156 143.763C306.607 142.439 306.771 141.034 306.639 139.641C306.507 138.249 306.081 136.9 305.389 135.683C304.697 134.466 303.756 133.41 302.625 132.582C301.495 131.755 300.202 131.176 298.832 130.882C297.461 130.589 296.044 130.589 294.674 130.881C292.626 129.64 290.246 128.805 287.86 129.018C285.474 129.23 283.114 130.644 282.222 132.862C281.33 135.081 282.288 138.005 284.507 138.907C285.929 139.485 287.535 139.205 289.053 138.972C290.571 138.739 292.227 138.586 293.548 139.368C294.869 140.15 295.462 142.245 294.279 143.223C293.652 143.761 293.204 144.478 292.995 145.277C292.787 146.076 292.827 146.919 293.11 147.695C293.705 149.229 295.327 150.462 296.535 150.488Z" fill="#2F2E41"/>
<path d="M308.087 201.43L309.739 263.984C309.744 264.192 309.706 264.4 309.628 264.593C309.549 264.786 309.431 264.961 309.282 265.107C309.132 265.252 308.954 265.366 308.758 265.439C308.563 265.513 308.354 265.546 308.145 265.535L302.705 265.258C302.358 265.24 302.027 265.104 301.768 264.872C301.51 264.64 301.339 264.327 301.284 263.984L294.813 223.355C294.785 223.181 294.698 223.022 294.565 222.906C294.433 222.79 294.264 222.723 294.088 222.718C293.912 222.712 293.739 222.768 293.6 222.876C293.46 222.984 293.363 223.137 293.324 223.309L284.565 262.427C284.518 262.637 284.427 262.833 284.298 263.005C284.17 263.176 284.006 263.318 283.818 263.422C283.63 263.526 283.422 263.588 283.208 263.606C282.994 263.623 282.779 263.595 282.577 263.523L277.177 263.194C276.865 263.083 276.598 262.873 276.416 262.596C276.235 262.319 276.149 261.991 276.173 261.661L280.886 200.838L308.087 201.43Z" fill="#2F2E41"/>
<path d="M310.737 171.719C311.648 162.24 304.664 153.666 295.147 152.991C291.046 152.701 284.679 152.597 282.581 157.961C276.258 174.121 287.326 173.729 283.513 187.73C279.699 201.731 276.332 202.533 281.564 203.544C286.796 204.555 310.324 210.523 309.357 200.669C308.764 194.611 309.828 181.175 310.737 171.719Z" fill="#536DFE"/>
<path d="M283.7 156.317C284.452 156.027 285.267 155.94 286.063 156.064C286.859 156.189 287.608 156.52 288.235 157.026C288.861 157.532 289.343 158.194 289.631 158.945C289.92 159.696 290.004 160.509 289.877 161.303L286.905 179.838C286.397 183.008 285.054 185.986 283.014 188.467L273.363 200.204C273.224 200.373 273.051 200.509 272.855 200.605C272.658 200.7 272.444 200.752 272.225 200.757C272.007 200.762 271.79 200.72 271.59 200.634C271.389 200.547 271.21 200.419 271.064 200.257L268.771 197.716C268.534 197.453 268.397 197.115 268.383 196.761C268.369 196.408 268.481 196.06 268.697 195.78L269.372 194.905C274.987 187.633 278.529 178.983 279.624 169.867L280.806 160.036C280.905 159.213 281.227 158.432 281.736 157.776C282.246 157.121 282.925 156.617 283.7 156.317Z" fill="#536DFE"/>
<path d="M334.621 274H236.818C236.717 274 236.621 273.96 236.55 273.889C236.478 273.818 236.438 273.722 236.438 273.622C236.438 273.521 236.478 273.425 236.55 273.354C236.621 273.283 236.717 273.243 236.818 273.243H334.621C334.722 273.243 334.818 273.283 334.889 273.354C334.961 273.425 335 273.521 335 273.622C335 273.722 334.961 273.818 334.889 273.889C334.818 273.96 334.722 274 334.621 274Z" fill="#536DFE" fill-opacity="0.5"/>
</g>
<defs>
<clipPath id="clip0_60_55">
<rect width="335" height="274" fill="white"/>
</clipPath>
</defs>
</svg>
